BodoniModa-6ptBlack.ufo
<glyph name="exclam" format="2">
  <advance width="878"/>
  <unicode hex="0021"/>
  <outline>
    <contour>
      <point x="400" y="616" type="curve"/>
      <point x="476" y="616" type="line"/>
      <point x="476" y="816"/>
      <point x="656" y="1006"/>
      <point x="676" y="1238" type="curve" smooth="yes"/>
      <point x="678" y="1252"/>
      <point x="678" y="1264"/>
      <point x="678" y="1276" type="curve" smooth="yes"/>
      <point x="678" y="1408"/>
      <point x="592" y="1516"/>
      <point x="438" y="1516" type="curve" smooth="yes"/>
      <point x="284" y="1516"/>
      <point x="200" y="1408"/>
      <point x="200" y="1276" type="curve" smooth="yes"/>
      <point x="200" y="1264"/>
      <point x="198" y="1252"/>
      <point x="200" y="1238" type="curve" smooth="yes"/>
      <point x="220" y="1006"/>
      <point x="400" y="816"/>
    </contour>
    <contour>
      <point x="440" y="-20" type="curve" smooth="yes"/>
      <point x="572" y="-20"/>
      <point x="680" y="88"/>
      <point x="680" y="220" type="curve" smooth="yes"/>
      <point x="680" y="352"/>
      <point x="572" y="460"/>
      <point x="440" y="460" type="curve" smooth="yes"/>
      <point x="308" y="460"/>
      <point x="200" y="352"/>
      <point x="200" y="220" type="curve" smooth="yes"/>
      <point x="200" y="88"/>
      <point x="308" y="-20"/>
    </contour>
  </outline>
</glyph>
<glyph name="seven" format="2">
  <advance width="1148"/>
  <unicode hex="0037"/>
  <outline>
    <contour>
      <point x="508" y="-20" type="curve" smooth="yes"/>
      <point x="656" y="-20"/>
      <point x="756" y="82"/>
      <point x="756" y="216" type="curve" smooth="yes"/>
      <point x="756" y="408"/>
      <point x="580" y="440"/>
      <point x="580" y="544" type="curve" smooth="yes"/>
      <point x="580" y="612"/>
      <point x="588" y="624"/>
      <point x="692" y="776" type="curve" smooth="yes"/>
      <point x="866" y="1024"/>
      <point x="1130" y="1500"/>
      <point x="1130" y="1500" type="curve"/>
      <point x="80" y="1500" type="line"/>
      <point x="80" y="920" type="line"/>
      <point x="152" y="920" type="line"/>
      <point x="152" y="1070" type="line"/>
      <point x="788" y="1070" type="line"/>
      <point x="686" y="896"/>
      <point x="648" y="838"/>
      <point x="584" y="756" type="curve" smooth="yes"/>
      <point x="422" y="544"/>
      <point x="256" y="370"/>
      <point x="256" y="212" type="curve" smooth="yes"/>
      <point x="256" y="54"/>
      <point x="368" y="-20"/>
    </contour>
  </outline>
</glyph>
<glyph name="E" format="2">
  <advance width="1338"/>
  <unicode hex="0045"/>
  <anchor x="706" y="0" name="bottom"/>
  <anchor x="1096" y="0" name="ogonek"/>
  <anchor x="704" y="1500" name="top"/>
  <outline>
    <contour>
      <point x="28" y="0" type="line"/>
      <point x="1280" y="0" type="line"/>
      <point x="1280" y="450" type="line"/>
      <point x="1208" y="450" type="line"/>
      <point x="1148" y="196"/>
      <point x="980" y="72"/>
      <point x="708" y="72" type="curve" smooth="yes"/>
      <point x="640" y="72" type="line"/>
      <point x="640" y="1428" type="line"/>
      <point x="728" y="1428" type="line" smooth="yes"/>
      <point x="962" y="1428"/>
      <point x="1128" y="1304"/>
      <point x="1188" y="1090" type="curve"/>
      <point x="1260" y="1090" type="line"/>
      <point x="1260" y="1500" type="line"/>
      <point x="28" y="1500" type="line"/>
      <point x="28" y="1428" type="line"/>
      <point x="210" y="1428" type="line"/>
      <point x="210" y="72" type="line"/>
      <point x="28" y="72" type="line"/>
    </contour>
    <contour>
      <point x="906" y="496" type="curve"/>
      <point x="980" y="496" type="line"/>
      <point x="980" y="1046" type="line"/>
      <point x="906" y="1046" type="line"/>
      <point x="845" y="911"/>
      <point x="739" y="811"/>
      <point x="626" y="812" type="curve" smooth="yes"/>
      <point x="620" y="812" type="line"/>
      <point x="620" y="740" type="line"/>
      <point x="626" y="740" type="line" smooth="yes"/>
      <point x="739" y="741"/>
      <point x="846" y="630"/>
    </contour>
  </outline>
</glyph>
<glyph name="N" format="2">
  <advance width="1634"/>
  <unicode hex="004E"/>
  <anchor x="786" y="0" name="bottom"/>
  <anchor x="814" y="1500" name="top"/>
  <outline>
    <contour>
      <point x="316" y="1500" type="line"/>
      <point x="28" y="1500" type="line"/>
      <point x="28" y="1428" type="line"/>
      <point x="240" y="1428" type="line"/>
      <point x="240" y="72" type="line"/>
      <point x="28" y="72" type="line"/>
      <point x="28" y="0" type="line"/>
      <point x="548" y="0" type="line"/>
      <point x="548" y="72" type="line"/>
      <point x="316" y="72" type="line"/>
    </contour>
    <contour>
      <point x="1606" y="1500" type="line"/>
      <point x="1100" y="1500" type="line"/>
      <point x="1100" y="1428" type="line"/>
      <point x="1320" y="1428" type="line"/>
      <point x="1320" y="714" type="line"/>
      <point x="772" y="1500" type="line"/>
      <point x="264" y="1500" type="line"/>
      <point x="1292" y="-20" type="line"/>
      <point x="1396" y="-20" type="line"/>
      <point x="1396" y="1428" type="line"/>
      <point x="1606" y="1428" type="line"/>
    </contour>
  </outline>
</glyph>
<glyph name="P" format="2">
  <advance width="1468"/>
  <unicode hex="0050"/>
  <anchor x="436" y="0" name="bottom"/>
  <anchor x="674" y="1500" name="top"/>
  <outline>
    <contour>
      <point x="820" y="1500" type="curve" smooth="yes"/>
      <point x="28" y="1500" type="line"/>
      <point x="28" y="1428" type="line"/>
      <point x="210" y="1428" type="line"/>
      <point x="210" y="72" type="line"/>
      <point x="28" y="72" type="line"/>
      <point x="28" y="0" type="line"/>
      <point x="820" y="0" type="line"/>
      <point x="820" y="72" type="line"/>
      <point x="640" y="72" type="line"/>
      <point x="640" y="628" type="line"/>
      <point x="820" y="628" type="line" smooth="yes"/>
      <point x="1222" y="628"/>
      <point x="1400" y="804"/>
      <point x="1400" y="1064" type="curve" smooth="yes"/>
      <point x="1400" y="1324"/>
      <point x="1222" y="1500"/>
    </contour>
    <contour>
      <point x="640" y="700" type="line"/>
      <point x="640" y="1428" type="line"/>
      <point x="740" y="1428" type="line" smooth="yes"/>
      <point x="892" y="1428"/>
      <point x="940" y="1242"/>
      <point x="940" y="1064" type="curve" smooth="yes"/>
      <point x="940" y="886"/>
      <point x="892" y="700"/>
      <point x="740" y="700" type="curve" smooth="yes"/>
    </contour>
  </outline>
</glyph>
<glyph name="Y" format="2">
  <advance width="1528"/>
  <unicode hex="0059"/>
  <anchor x="776" y="0" name="bottom"/>
  <anchor x="854" y="1500" name="top"/>
  <outline>
    <contour>
      <point x="392" y="0" type="line"/>
      <point x="1200" y="0" type="line"/>
      <point x="1200" y="72" type="line"/>
      <point x="1000" y="72" type="line"/>
      <point x="1000" y="734" type="line"/>
      <point x="1362" y="1428" type="line"/>
      <point x="1510" y="1428" type="line"/>
      <point x="1510" y="1500" type="line"/>
      <point x="1090" y="1500" type="line"/>
      <point x="1090" y="1428" type="line"/>
      <point x="1276" y="1428" type="line"/>
      <point x="980" y="860" type="line"/>
      <point x="678" y="1428" type="line"/>
      <point x="840" y="1428" type="line"/>
      <point x="840" y="1500" type="line"/>
      <point x="20" y="1500" type="line"/>
      <point x="20" y="1428" type="line"/>
      <point x="180" y="1428" type="line"/>
      <point x="570" y="720" type="line"/>
      <point x="570" y="72" type="line"/>
      <point x="392" y="72" type="line"/>
    </contour>
  </outline>
</glyph>
<glyph name="d" format="2">
  <advance width="1344"/>
  <unicode hex="0064"/>
  <anchor x="676" y="0" name="bottom"/>
  <anchor x="983" y="0" name="cedilla"/>
  <anchor x="672" y="460" name="center"/>
  <anchor x="456" y="920" name="top"/>
  <anchor x="1244" y="920" name="topright"/>
  <outline>
    <contour>
      <point x="484" y="-18" type="curve" smooth="yes"/>
      <point x="621" y="-18"/>
      <point x="731" y="47"/>
      <point x="796" y="167" type="curve"/>
      <point x="796" y="0" type="line"/>
      <point x="1316" y="0" type="line"/>
      <point x="1316" y="72" type="line"/>
      <point x="1176" y="72" type="line"/>
      <point x="1176" y="1500" type="line"/>
      <point x="656" y="1500" type="line"/>
      <point x="656" y="1428" type="line"/>
      <point x="796" y="1428" type="line"/>
      <point x="796" y="753" type="line"/>
      <point x="731" y="874"/>
      <point x="621" y="940"/>
      <point x="484" y="940" type="curve" smooth="yes"/>
      <point x="266" y="940"/>
      <point x="60" y="760"/>
      <point x="60" y="460" type="curve" smooth="yes"/>
      <point x="60" y="160"/>
      <point x="266" y="-18"/>
    </contour>
    <contour>
      <point x="600" y="96" type="curve" smooth="yes"/>
      <point x="532" y="96"/>
      <point x="490" y="168"/>
      <point x="490" y="460" type="curve" smooth="yes"/>
      <point x="490" y="752"/>
      <point x="532" y="828"/>
      <point x="600" y="828" type="curve" smooth="yes"/>
      <point x="676" y="828"/>
      <point x="796" y="698"/>
      <point x="796" y="460" type="curve" smooth="yes"/>
      <point x="796" y="228"/>
      <point x="676" y="96"/>
    </contour>
  </outline>
</glyph>
<glyph name="u" format="2">
  <advance width="1328"/>
  <unicode hex="0075"/>
  <anchor x="656" y="0" name="bottom"/>
  <anchor x="1066" y="0" name="ogonek"/>
  <anchor x="626" y="920" name="top"/>
  <outline>
    <contour>
      <point x="468" y="-20" type="curve" smooth="yes"/>
      <point x="754" y="-20"/>
      <point x="844" y="272"/>
      <point x="844" y="476" type="curve"/>
      <point x="780" y="476" type="line"/>
      <point x="780" y="270"/>
      <point x="684" y="144"/>
      <point x="622" y="144" type="curve" smooth="yes"/>
      <point x="566" y="144"/>
      <point x="550" y="168"/>
      <point x="550" y="336" type="curve" smooth="yes"/>
      <point x="550" y="920" type="line"/>
      <point x="28" y="920" type="line"/>
      <point x="28" y="848" type="line"/>
      <point x="170" y="848" type="line"/>
      <point x="170" y="282" type="line" smooth="yes"/>
      <point x="170" y="108"/>
      <point x="240" y="-20"/>
    </contour>
    <contour>
      <point x="780" y="0" type="line"/>
      <point x="1300" y="0" type="line"/>
      <point x="1300" y="72" type="line"/>
      <point x="1160" y="72" type="line"/>
      <point x="1160" y="920" type="line"/>
      <point x="660" y="920" type="line"/>
      <point x="660" y="848" type="line"/>
      <point x="780" y="848" type="line"/>
    </contour>
  </outline>
</glyph>
<glyph name="v" format="2">
  <advance width="1196"/>
  <unicode hex="0076"/>
  <anchor x="616" y="0" name="bottom"/>
  <anchor x="676" y="920" name="top"/>
  <outline>
    <contour>
      <point x="1208" y="920" type="line"/>
      <point x="820" y="920" type="line"/>
      <point x="820" y="848" type="line"/>
      <point x="988" y="848" type="line"/>
      <point x="760" y="272" type="line"/>
      <point x="564" y="848" type="line"/>
      <point x="672" y="848" type="line"/>
      <point x="672" y="920" type="line"/>
      <point x="-10" y="920" type="line"/>
      <point x="-10" y="848" type="line"/>
      <point x="150" y="848" type="line"/>
      <point x="506" y="-20" type="line"/>
      <point x="724" y="-20" type="line"/>
      <point x="1071" y="848" type="line"/>
      <point x="1208" y="848" type="line"/>
    </contour>
  </outline>
</glyph>
<glyph name="x" format="2">
  <advance width="1186"/>
  <unicode hex="0078"/>
  <anchor x="536" y="0" name="bottom"/>
  <anchor x="636" y="920" name="top"/>
  <outline>
    <contour>
      <point x="496" y="0" type="line"/>
      <point x="1178" y="0" type="line"/>
      <point x="1178" y="72" type="line"/>
      <point x="1045" y="72" type="line"/>
      <point x="583" y="848" type="line"/>
      <point x="682" y="848" type="line"/>
      <point x="682" y="920" type="line"/>
      <point x="10" y="920" type="line"/>
      <point x="10" y="848" type="line"/>
      <point x="161" y="848" type="line"/>
      <point x="607" y="72" type="line"/>
      <point x="496" y="72" type="line"/>
    </contour>
    <contour>
      <point x="10" y="0" type="line"/>
      <point x="388" y="0" type="line"/>
      <point x="388" y="72" type="line"/>
      <point x="237" y="72" type="line"/>
      <point x="1005" y="848" type="line"/>
      <point x="1158" y="848" type="line"/>
      <point x="1158" y="920" type="line"/>
      <point x="812" y="920" type="line"/>
      <point x="812" y="848" type="line"/>
      <point x="911" y="848" type="line"/>
      <point x="141" y="72" type="line"/>
      <point x="10" y="72" type="line"/>
    </contour>
  </outline>
</glyph>
<glyph name="registered" format="2">
  <advance width="1738"/>
  <unicode hex="00AE"/>
  <anchor x="911.6" y="296" name="bottom"/>
  <anchor x="664.4" y="296" name="cedilla"/>
  <anchor x="826.4" y="1196" name="top"/>
  <outline>
    <contour>
      <point x="870" y="-20" type="curve" smooth="yes"/>
      <point x="1296" y="-20"/>
      <point x="1640" y="324"/>
      <point x="1640" y="750" type="curve" smooth="yes"/>
      <point x="1640" y="1176"/>
      <point x="1296" y="1520"/>
      <point x="870" y="1520" type="curve" smooth="yes"/>
      <point x="444" y="1520"/>
      <point x="100" y="1176"/>
      <point x="100" y="750" type="curve" smooth="yes"/>
      <point x="100" y="324"/>
      <point x="444" y="-20"/>
    </contour>
    <contour>
      <point x="870" y="52" type="curve" smooth="yes"/>
      <point x="486" y="52"/>
      <point x="174" y="366"/>
      <point x="174" y="750" type="curve" smooth="yes"/>
      <point x="174" y="1134"/>
      <point x="486" y="1448"/>
      <point x="870" y="1448" type="curve" smooth="yes"/>
      <point x="1254" y="1448"/>
      <point x="1566" y="1134"/>
      <point x="1566" y="750" type="curve" smooth="yes"/>
      <point x="1566" y="366"/>
      <point x="1254" y="52"/>
    </contour>
    <contour>
      <point x="1172" y="284" type="curve" smooth="yes"/>
      <point x="1263" y="284"/>
      <point x="1333" y="302"/>
      <point x="1352" y="313" type="curve"/>
      <point x="1338" y="356" type="line"/>
      <point x="1321" y="349"/>
      <point x="1304" y="344"/>
      <point x="1279" y="344" type="curve" smooth="yes"/>
      <point x="1124" y="344"/>
      <point x="1383" y="758"/>
      <point x="971" y="758" type="curve"/>
      <point x="1145" y="774"/>
      <point x="1251" y="840"/>
      <point x="1251" y="974" type="curve" smooth="yes"/>
      <point x="1251" y="1130"/>
      <point x="1094" y="1196"/>
      <point x="878" y="1196" type="curve" smooth="yes"/>
      <point x="433" y="1196" type="line"/>
      <point x="433" y="1153" type="line"/>
      <point x="542" y="1153" type="line"/>
      <point x="542" y="339" type="line"/>
      <point x="433" y="339" type="line"/>
      <point x="433" y="296" type="line"/>
      <point x="908" y="296" type="line"/>
      <point x="908" y="339" type="line"/>
      <point x="800" y="339" type="line"/>
      <point x="800" y="735" type="line"/>
      <point x="824" y="735" type="line" smooth="yes"/>
      <point x="1119" y="735"/>
      <point x="796" y="284"/>
    </contour>
    <contour>
      <point x="800" y="781" type="line"/>
      <point x="800" y="1153" type="line"/>
      <point x="818" y="1153" type="line" smooth="yes"/>
      <point x="933" y="1153"/>
      <point x="986" y="1129"/>
      <point x="986" y="974" type="curve" smooth="yes"/>
      <point x="986" y="819"/>
      <point x="933" y="781"/>
      <point x="818" y="781" type="curve" smooth="yes"/>
    </contour>
  </outline>
</glyph>
<glyph name="oslash" format="2">
  <advance width="1154"/>
  <unicode hex="00F8"/>
  <outline>
    <contour>
      <point x="120" y="-246.452" type="line"/>
      <point x="193" y="-246.452" type="line"/>
      <point x="1033" y="1158.305" type="line"/>
      <point x="960" y="1158.305" type="line"/>
    </contour>
    <component base="o"/>
  </outline>
</glyph>
<glyph name="tbar" format="2">
  <advance width="808"/>
  <unicode hex="0167"/>
  <outline>
    <contour>
      <point x="11.002" y="518" type="line"/>
      <point x="749.002" y="518" type="line"/>
      <point x="749.002" y="590" type="line"/>
      <point x="11.002" y="590" type="line"/>
    </contour>
    <component base="t"/>
  </outline>
</glyph>
<glyph name="gravecomb" format="2">
  <unicode hex="0300"/>
  <anchor x="609" y="1500" name="_top"/>
  <outline>
    <contour>
      <point x="709" y="1660" type="line"/>
      <point x="741" y="1708" type="line"/>
      <point x="592" y="1956" type="line" smooth="yes"/>
      <point x="506" y="2099"/>
      <point x="340" y="2079"/>
      <point x="287" y="2001" type="curve" smooth="yes"/>
      <point x="221" y="1905"/>
      <point x="279" y="1752"/>
      <point x="437" y="1718" type="curve" smooth="yes"/>
    </contour>
  </outline>
</glyph>
<glyph name="acutecomb" format="2">
  <unicode hex="0301"/>
  <anchor x="395" y="1500" name="_top"/>
  <outline>
    <contour>
      <point x="292" y="1660" type="line"/>
      <point x="564" y="1718" type="line" smooth="yes"/>
      <point x="722" y="1752"/>
      <point x="780" y="1905"/>
      <point x="714" y="2001" type="curve" smooth="yes"/>
      <point x="660" y="2079"/>
      <point x="495" y="2099"/>
      <point x="409" y="1956" type="curve" smooth="yes"/>
      <point x="260" y="1708" type="line"/>
    </contour>
  </outline>
</glyph>
<glyph name="Delta" format="2">
  <advance width="1427"/>
  <unicode hex="0394"/>
  <outline>
    <contour>
      <point x="60" y="0" type="line"/>
      <point x="144" y="0" type="line"/>
      <point x="520" y="1081" type="line"/>
      <point x="871" y="0" type="line"/>
      <point x="1367" y="0" type="line"/>
      <point x="837" y="1529" type="line"/>
      <point x="602" y="1529" type="line"/>
    </contour>
    <contour>
      <point x="111" y="0" type="line"/>
      <point x="1151" y="0" type="line"/>
      <point x="1151" y="73" type="line"/>
      <point x="111" y="73" type="line"/>
    </contour>
  </outline>
</glyph>
<glyph name="quotedblleft" format="2">
  <advance width="1278"/>
  <unicode hex="201C"/>
  <outline>
    <contour>
      <point x="946" y="792" type="curve" smooth="yes"/>
      <point x="1082" y="792"/>
      <point x="1200" y="904"/>
      <point x="1200" y="1030" type="curve" smooth="yes"/>
      <point x="1200" y="1156"/>
      <point x="1110" y="1268"/>
      <point x="964" y="1268" type="curve" smooth="yes"/>
      <point x="846" y="1268"/>
      <point x="738" y="1170"/>
      <point x="738" y="1100" type="curve"/>
      <point x="761" y="1100" type="line"/>
      <point x="761" y="1370"/>
      <point x="970" y="1486"/>
      <point x="1204" y="1486" type="curve"/>
      <point x="1204" y="1560" type="line"/>
      <point x="894" y="1560"/>
      <point x="686" y="1371"/>
      <point x="686" y="1100" type="curve" smooth="yes"/>
      <point x="686" y="914"/>
      <point x="808" y="792"/>
    </contour>
    <contour>
      <point x="336" y="792" type="curve" smooth="yes"/>
      <point x="472" y="792"/>
      <point x="590" y="904"/>
      <point x="590" y="1030" type="curve" smooth="yes"/>
      <point x="590" y="1156"/>
      <point x="500" y="1268"/>
      <point x="354" y="1268" type="curve" smooth="yes"/>
      <point x="236" y="1268"/>
      <point x="128" y="1170"/>
      <point x="128" y="1100" type="curve"/>
      <point x="151" y="1100" type="line"/>
      <point x="151" y="1370"/>
      <point x="360" y="1486"/>
      <point x="594" y="1486" type="curve"/>
      <point x="594" y="1560" type="line"/>
      <point x="284" y="1560"/>
      <point x="76" y="1371"/>
      <point x="76" y="1100" type="curve" smooth="yes"/>
      <point x="76" y="914"/>
      <point x="198" y="792"/>
    </contour>
  </outline>
</glyph>
<glyph name="quotedblright" format="2">
  <advance width="1278"/>
  <unicode hex="201D"/>
  <outline>
    <contour>
      <point x="686" y="772" type="line"/>
      <point x="996" y="772"/>
      <point x="1204" y="961"/>
      <point x="1204" y="1232" type="curve" smooth="yes"/>
      <point x="1204" y="1418"/>
      <point x="1082" y="1540"/>
      <point x="944" y="1540" type="curve" smooth="yes"/>
      <point x="808" y="1540"/>
      <point x="690" y="1428"/>
      <point x="690" y="1302" type="curve" smooth="yes"/>
      <point x="690" y="1176"/>
      <point x="780" y="1064"/>
      <point x="926" y="1064" type="curve" smooth="yes"/>
      <point x="1044" y="1064"/>
      <point x="1152" y="1162"/>
      <point x="1152" y="1232" type="curve"/>
      <point x="1129" y="1232" type="line"/>
      <point x="1129" y="962"/>
      <point x="920" y="846"/>
      <point x="686" y="846" type="curve"/>
    </contour>
    <contour>
      <point x="76" y="772" type="line"/>
      <point x="386" y="772"/>
      <point x="594" y="961"/>
      <point x="594" y="1232" type="curve" smooth="yes"/>
      <point x="594" y="1418"/>
      <point x="472" y="1540"/>
      <point x="334" y="1540" type="curve" smooth="yes"/>
      <point x="198" y="1540"/>
      <point x="80" y="1428"/>
      <point x="80" y="1302" type="curve" smooth="yes"/>
      <point x="80" y="1176"/>
      <point x="170" y="1064"/>
      <point x="316" y="1064" type="curve" smooth="yes"/>
      <point x="434" y="1064"/>
      <point x="542" y="1162"/>
      <point x="542" y="1232" type="curve"/>
      <point x="519" y="1232" type="line"/>
      <point x="519" y="962"/>
      <point x="310" y="846"/>
      <point x="76" y="846" type="curve"/>
    </contour>
  </outline>
</glyph>
<glyph name="quotedblbase" format="2">
  <advance width="1278"/>
  <unicode hex="201E"/>
  <outline>
    <contour>
      <point x="686" y="-312" type="line"/>
      <point x="996" y="-312"/>
      <point x="1204" y="-123"/>
      <point x="1204" y="148" type="curve" smooth="yes"/>
      <point x="1204" y="334"/>
      <point x="1082" y="456"/>
      <point x="944" y="456" type="curve" smooth="yes"/>
      <point x="808" y="456"/>
      <point x="690" y="344"/>
      <point x="690" y="218" type="curve" smooth="yes"/>
      <point x="690" y="92"/>
      <point x="780" y="-20"/>
      <point x="926" y="-20" type="curve" smooth="yes"/>
      <point x="1044" y="-20"/>
      <point x="1152" y="78"/>
      <point x="1152" y="148" type="curve"/>
      <point x="1129" y="148" type="line"/>
      <point x="1129" y="-122"/>
      <point x="920" y="-238"/>
      <point x="686" y="-238" type="curve"/>
    </contour>
    <contour>
      <point x="76" y="-312" type="line"/>
      <point x="386" y="-312"/>
      <point x="594" y="-123"/>
      <point x="594" y="148" type="curve" smooth="yes"/>
      <point x="594" y="334"/>
      <point x="472" y="456"/>
      <point x="334" y="456" type="curve" smooth="yes"/>
      <point x="198" y="456"/>
      <point x="80" y="344"/>
      <point x="80" y="218" type="curve" smooth="yes"/>
      <point x="80" y="92"/>
      <point x="170" y="-20"/>
      <point x="316" y="-20" type="curve" smooth="yes"/>
      <point x="434" y="-20"/>
      <point x="542" y="78"/>
      <point x="542" y="148" type="curve"/>
      <point x="519" y="148" type="line"/>
      <point x="519" y="-122"/>
      <point x="310" y="-238"/>
      <point x="76" y="-238" type="curve"/>
    </contour>
  </outline>
</glyph>
<glyph name="daggerdbl" format="2">
  <advance width="1288"/>
  <unicode hex="2021"/>
  <outline>
    <contour>
      <point x="644" y="-520" type="curve" smooth="yes"/>
      <point x="762" y="-520"/>
      <point x="864" y="-436"/>
      <point x="864" y="-318" type="curve" smooth="yes"/>
      <point x="864" y="-306"/>
      <point x="864" y="-296"/>
      <point x="862" y="-282" type="curve" smooth="yes"/>
      <point x="848" y="-172"/>
      <point x="707" y="-124"/>
      <point x="683" y="-10" type="curve"/>
      <point x="794" y="-37"/>
      <point x="842" y="-174"/>
      <point x="950" y="-187" type="curve" smooth="yes"/>
      <point x="964" y="-189"/>
      <point x="974" y="-189"/>
      <point x="986" y="-189" type="curve" smooth="yes"/>
      <point x="1104" y="-189"/>
      <point x="1188" y="-87"/>
      <point x="1188" y="31" type="curve" smooth="yes"/>
      <point x="1188" y="149"/>
      <point x="1104" y="251"/>
      <point x="986" y="251" type="curve" smooth="yes"/>
      <point x="974" y="251"/>
      <point x="964" y="251"/>
      <point x="950" y="249" type="curve" smooth="yes"/>
      <point x="841" y="235"/>
      <point x="793" y="97"/>
      <point x="681" y="71" type="curve"/>
      <point x="692" y="306"/>
      <point x="784" y="406"/>
      <point x="850" y="500" type="curve"/>
      <point x="784" y="594"/>
      <point x="692" y="694"/>
      <point x="681" y="929" type="curve"/>
      <point x="793" y="903"/>
      <point x="841" y="765"/>
      <point x="950" y="751" type="curve" smooth="yes"/>
      <point x="964" y="749"/>
      <point x="974" y="749"/>
      <point x="986" y="749" type="curve" smooth="yes"/>
      <point x="1104" y="749"/>
      <point x="1188" y="851"/>
      <point x="1188" y="969" type="curve" smooth="yes"/>
      <point x="1188" y="1087"/>
      <point x="1104" y="1189"/>
      <point x="986" y="1189" type="curve" smooth="yes"/>
      <point x="974" y="1189"/>
      <point x="964" y="1189"/>
      <point x="950" y="1187" type="curve" smooth="yes"/>
      <point x="842" y="1174"/>
      <point x="794" y="1037"/>
      <point x="683" y="1010" type="curve"/>
      <point x="707" y="1124"/>
      <point x="848" y="1172"/>
      <point x="862" y="1282" type="curve" smooth="yes"/>
      <point x="864" y="1296"/>
      <point x="864" y="1306"/>
      <point x="864" y="1318" type="curve" smooth="yes"/>
      <point x="864" y="1436"/>
      <point x="762" y="1520"/>
      <point x="644" y="1520" type="curve" smooth="yes"/>
      <point x="526" y="1520"/>
      <point x="424" y="1436"/>
      <point x="424" y="1318" type="curve" smooth="yes"/>
      <point x="424" y="1306"/>
      <point x="424" y="1296"/>
      <point x="426" y="1282" type="curve" smooth="yes"/>
      <point x="440" y="1172"/>
      <point x="581" y="1124"/>
      <point x="605" y="1010" type="curve"/>
      <point x="494" y="1037"/>
      <point x="446" y="1174"/>
      <point x="338" y="1187" type="curve" smooth="yes"/>
      <point x="324" y="1189"/>
      <point x="314" y="1189"/>
      <point x="302" y="1189" type="curve" smooth="yes"/>
      <point x="184" y="1189"/>
      <point x="100" y="1087"/>
      <point x="100" y="969" type="curve" smooth="yes"/>
      <point x="100" y="851"/>
      <point x="184" y="749"/>
      <point x="302" y="749" type="curve" smooth="yes"/>
      <point x="314" y="749"/>
      <point x="324" y="749"/>
      <point x="338" y="751" type="curve" smooth="yes"/>
      <point x="447" y="765"/>
      <point x="495" y="903"/>
      <point x="607" y="929" type="curve"/>
      <point x="596" y="694"/>
      <point x="504" y="594"/>
      <point x="438" y="500" type="curve"/>
      <point x="504" y="406"/>
      <point x="596" y="306"/>
      <point x="607" y="71" type="curve"/>
      <point x="495" y="97"/>
      <point x="447" y="235"/>
      <point x="338" y="249" type="curve" smooth="yes"/>
      <point x="324" y="251"/>
      <point x="314" y="251"/>
      <point x="302" y="251" type="curve" smooth="yes"/>
      <point x="184" y="251"/>
      <point x="100" y="149"/>
      <point x="100" y="31" type="curve" smooth="yes"/>
      <point x="100" y="-87"/>
      <point x="184" y="-189"/>
      <point x="302" y="-189" type="curve" smooth="yes"/>
      <point x="314" y="-189"/>
      <point x="324" y="-189"/>
      <point x="338" y="-187" type="curve" smooth="yes"/>
      <point x="446" y="-174"/>
      <point x="494" y="-37"/>
      <point x="605" y="-10" type="curve"/>
      <point x="581" y="-124"/>
      <point x="440" y="-172"/>
      <point x="426" y="-282" type="curve" smooth="yes"/>
      <point x="424" y="-296"/>
      <point x="424" y="-306"/>
      <point x="424" y="-318" type="curve" smooth="yes"/>
      <point x="424" y="-436"/>
      <point x="526" y="-520"/>
    </contour>
  </outline>
</glyph>
<glyph name="trademark" format="2">
  <advance width="1360"/>
  <unicode hex="2122"/>
  <anchor x="317" y="976" name="bottom"/>
  <anchor x="320.24" y="1516" name="top"/>
  <outline>
    <contour>
      <point x="881" y="969" type="line"/>
      <point x="909" y="969" type="line"/>
      <point x="1087" y="1495" type="line"/>
      <point x="1087" y="1002" type="line"/>
      <point x="1030" y="1002" type="line"/>
      <point x="1030" y="976" type="line"/>
      <point x="1292" y="976" type="line"/>
      <point x="1292" y="1002" type="line"/>
      <point x="1241" y="1002" type="line"/>
      <point x="1241" y="1490" type="line"/>
      <point x="1292" y="1490" type="line"/>
      <point x="1292" y="1516" type="line"/>
      <point x="1066" y="1516" type="line"/>
      <point x="956" y="1191" type="line"/>
      <point x="837" y="1516" type="line"/>
      <point x="612" y="1516" type="line"/>
      <point x="612" y="1490" type="line"/>
      <point x="667" y="1490" type="line"/>
      <point x="667" y="1002" type="line"/>
      <point x="616" y="1002" type="line"/>
      <point x="616" y="976" type="line"/>
      <point x="745" y="976" type="line"/>
      <point x="745" y="1002" type="line"/>
      <point x="695" y="1002" type="line"/>
      <point x="695" y="1478" type="line"/>
    </contour>
    <contour>
      <point x="160" y="976" type="line"/>
      <point x="474" y="976" type="line"/>
      <point x="474" y="1002" type="line"/>
      <point x="394" y="1002" type="line"/>
      <point x="394" y="1490" type="line"/>
      <point x="404" y="1490" type="line" smooth="yes"/>
      <point x="474" y="1490"/>
      <point x="520" y="1424"/>
      <point x="541" y="1332" type="curve"/>
      <point x="567" y="1332" type="line"/>
      <point x="567" y="1516" type="line"/>
      <point x="66" y="1516" type="line"/>
      <point x="66" y="1332" type="line"/>
      <point x="93" y="1332" type="line"/>
      <point x="115" y="1424"/>
      <point x="161" y="1490"/>
      <point x="230" y="1490" type="curve" smooth="yes"/>
      <point x="240" y="1490" type="line"/>
      <point x="240" y="1002" type="line"/>
      <point x="160" y="1002" type="line"/>
    </contour>
  </outline>
</glyph>
<glyph name="nine.tosf" format="2">
  <advance width="1400"/>
  <outline>
    <contour>
      <point x="272" y="-519.961" type="line"/>
      <point x="876" y="-519.961"/>
      <point x="1280" y="-127.468"/>
      <point x="1280" y="333.284" type="curve" smooth="yes"/>
      <point x="1280" y="731.465"/>
      <point x="1034" y="940.036"/>
      <point x="692" y="940.036" type="curve" smooth="yes"/>
      <point x="350" y="940.036"/>
      <point x="120" y="731.465"/>
      <point x="120" y="447.05" type="curve" smooth="yes"/>
      <point x="120" y="124.713"/>
      <point x="376" y="-17.495"/>
      <point x="618" y="-17.495" type="curve" smooth="yes"/>
      <point x="842" y="-17.495"/>
      <point x="872" y="149.362"/>
      <point x="872" y="390.167" type="curve"/>
      <point x="820" y="390.167" type="line"/>
      <point x="820" y="137.986"/>
      <point x="768" y="79.207"/>
      <point x="702" y="79.207" type="curve" smooth="yes"/>
      <point x="624" y="79.207"/>
      <point x="580" y="130.401"/>
      <point x="580" y="447.05" type="curve" smooth="yes"/>
      <point x="580" y="725.777"/>
      <point x="590" y="871.776"/>
      <point x="688" y="871.776" type="curve" smooth="yes"/>
      <point x="786" y="871.776"/>
      <point x="820" y="706.816"/>
      <point x="820" y="390.167" type="curve"/>
      <point x="830" y="219.518" type="line"/>
      <point x="830" y="-106.611"/>
      <point x="640" y="-455.494"/>
      <point x="272" y="-455.494" type="curve"/>
    </contour>
  </outline>
</glyph>
<glyph name="seven.osf" format="2">
  <advance width="1148"/>
  <outline>
    <contour>
      <point x="508" y="-519.947" type="curve" smooth="yes"/>
      <point x="656" y="-519.947"/>
      <point x="756" y="-423.316"/>
      <point x="756" y="-296.368" type="curve" smooth="yes"/>
      <point x="756" y="-114.473"/>
      <point x="580" y="-84.157"/>
      <point x="580" y="14.369" type="curve" smooth="yes"/>
      <point x="580" y="78.79"/>
      <point x="588" y="90.159"/>
      <point x="692" y="234.159" type="curve" smooth="yes"/>
      <point x="866" y="469.107"/>
      <point x="1130" y="920.055"/>
      <point x="1130" y="920.055" type="curve"/>
      <point x="80" y="920.055" type="line"/>
      <point x="80" y="370.58" type="line"/>
      <point x="152" y="370.58" type="line"/>
      <point x="152" y="512.686" type="line"/>
      <point x="788" y="512.686" type="line"/>
      <point x="686" y="347.844"/>
      <point x="648" y="292.896"/>
      <point x="584" y="215.212" type="curve" smooth="yes"/>
      <point x="422" y="14.369"/>
      <point x="256" y="-150.473"/>
      <point x="256" y="-300.158" type="curve" smooth="yes"/>
      <point x="256" y="-449.842"/>
      <point x="368" y="-519.947"/>
    </contour>
  </outline>
</glyph>
<glyph name="seven.tosf" format="2">
  <advance width="1400"/>
  <outline>
    <contour>
      <point x="624" y="-519.947" type="curve" smooth="yes"/>
      <point x="772" y="-519.947"/>
      <point x="872" y="-423.316"/>
      <point x="872" y="-296.368" type="curve" smooth="yes"/>
      <point x="872" y="-114.473"/>
      <point x="696" y="-84.157"/>
      <point x="696" y="14.369" type="curve" smooth="yes"/>
      <point x="696" y="78.79"/>
      <point x="704" y="90.159"/>
      <point x="808" y="234.159" type="curve" smooth="yes"/>
      <point x="982" y="469.107"/>
      <point x="1246" y="920.055"/>
      <point x="1246" y="920.055" type="curve"/>
      <point x="196" y="920.055" type="line"/>
      <point x="196" y="370.58" type="line"/>
      <point x="268" y="370.58" type="line"/>
      <point x="268" y="512.686" type="line"/>
      <point x="904" y="512.686" type="line"/>
      <point x="802" y="347.844"/>
      <point x="764" y="292.896"/>
      <point x="700" y="215.212" type="curve" smooth="yes"/>
      <point x="538" y="14.369"/>
      <point x="372" y="-150.473"/>
      <point x="372" y="-300.158" type="curve" smooth="yes"/>
      <point x="372" y="-449.842"/>
      <point x="484" y="-519.947"/>
    </contour>
  </outline>
</glyph>
